<svg xmlns="http://www.w3.org/2000/svg" viewBox="0 0 1000 1000"><defs><style>.cls-1{fill:#fff;}</style></defs><g id="Laastronaut_white_helmet2"><path class="cls-1" d="M575,499.52c15.62,0,21.25-2.1,21.25-12.91s-5.63-12.84-21.25-12.84-21.25,2-21.25,12.84S559.42,499.52,575,499.52Z"/><path class="cls-1" d="M944.31,572.55c-1.85-21.29-8.85-94.89-22.37-164.41-16-82.39-81.12-306.23-296.23-347.42s-357.13,51.06-445.24,146c-24.23,26.12-42.92,56.49-57.29,86.78L105.42,290a6.64,6.64,0,0,0-7.57,4.31L80.19,344.55a8.25,8.25,0,0,0,4,10.06c-13.44,32.24-45.68,129.48-17,268.12C102.58,794.43,201,846.55,201,846.55c7.26,17.14,49.35,40.58,66.83,49.73a15.52,15.52,0,0,1,8.18,12,107.69,107.69,0,0,0,4,19.31c4.58,14.88,42.34,21.74,73.23,21.74s119-40,304.37-137.3C822.09,725.76,920.81,608.83,941,583.57A15.47,15.47,0,0,0,944.31,572.55ZM575,460.71c24.4,0,36.71,8,36.71,25.9s-12.31,26-36.71,26-36.71-8-36.71-26S550.57,460.71,575,460.71Zm-67.86.82c11.41,0,25.83,3.61,25.83,18a15.72,15.72,0,0,1-13.14,15.91,64.84,64.84,0,0,1,7,6.61l9.24,9.76h-20.8l-11.18-13.29H480.3v13.29H464.76V486.08h43.7c4.8,0,8.55-2.18,8.55-5.63,0-3.9-3.22-5.85-8.55-5.85h-43.7l10.14-13.07Zm-42,0L455.16,474.6H437.22v37.16H421.68V474.6H398.1l10.06-13.07Zm-85.13,30H352.76c-12.91,0-18.84-5.78-18.84-14.41,0-9.46,6.31-15.62,21.55-15.62h43.61l-10,13.07H354.27c-3.61,0-5.33.9-5.33,3.45s1.72,3.53,5.33,3.53h27.32c12.24,0,18.85,4.58,18.85,13.74,0,10.28-6.24,16.44-21.55,16.44H332.12l10-12.92h38c3.68,0,5.33-1,5.33-3.68S383.77,491.56,380.09,491.56ZM278.15,466.34c2.1-2.93,5.18-5.63,10.06-5.63,4.65,0,7.73,2.47,9.91,5.63l31.38,45.42H271.09l9.39-12.92h12.61c3,0,6.53,0,8.93.15-1.35-1.8-3.45-4.88-5.1-7.28l-9-13.29-23.57,33.34h-18.4ZM261.71,759.42c1.54,3.76,4.41,7.17,7.68,10.31-30.57,34.37-60.78,52.79-67.72,67.1C178.09,818.2,92.29,741.48,74.93,599.38c-8-65.61-2.11-120.61,7.24-162.26a15.54,15.54,0,0,0,18.4,8.67c24.31-6.78,63.94-16.24,99.68-17.56-5.13,21.28-10.61,53.24-8.34,64.58,3.44,17.17,24,24,24,40.05s-17,88.11-24.51,103S180.35,681.61,201,683.9s37.82-6.87,40.11,6.87,0,38.9,5.72,40,18.3,14.88,24,14.88S256.4,746.47,261.71,759.42Zm55.1-188.28c-4,0-6.68-2-8.56-5.33l-8-14.18c-4.35-7.74-6.38-11.49-8.11-15.09-1.57,3.6-3.6,7.28-7.95,15l-8,14.26c-1.8,3.23-4.5,5.33-8.56,5.33-3.9,0-7.35-2.25-8.7-6.9l-12.77-44.15h15.54l4.73,17.5c1.58,5.63,2.63,9.76,3.38,13.81,1.65-3.53,3.6-7.36,7.06-13.89l6.75-12.61c2.63-4.95,5.19-5.63,8.86-5.63s6.38.68,9,5.63l6.68,12.69c3.76,6.9,5.48,10.43,7.06,13.81.83-4,1.95-8.26,3.45-13.81l4.73-17.5h15.17l-13,44.15C324.17,568.89,320.72,571.14,316.81,571.14Zm40.38-.82,9.39-12.91h12.61c3,0,6.53,0,8.93.15-1.35-1.81-3.45-4.88-5.1-7.29L374,537l-23.57,33.33H332l32.21-45.42c2.1-2.93,5.18-5.63,10.06-5.63,4.66,0,7.73,2.48,9.91,5.63l31.38,45.42Zm123.42-8.63c0,6.68-4.06,9.45-8.56,9.45-1.95,0-3.83-.45-6.23-2.7L435,540.82v29.5H420.92V528.65c0-6.68,4.06-9.38,8.49-9.38,1.87,0,3.75.45,6.23,2.7l30.78,27.63V520.09h14.19Zm61.47-28.53H524.14v37.16H508.6V533.16H485l10.06-13.07h57.05Zm63.14,37.16H556.87V520.09h58.18L605,533.16H572.48v6h39.79l-8.93,11.41H572.48v6.84H615.2ZM619.4,470.09c0-6.68,4.06-9.38,8.48-9.38,1.88,0,3.76.45,6.24,2.7L664.9,491V461.53h14.18v41.59c0,6.68-4.05,9.46-8.55,9.46-2,0-3.83-.45-6.23-2.7l-30.79-27.63v29.51H619.4Zm34.76,100.23H620.52V539h15.62v18.4h18c8.63,0,14.86-4.81,14.86-12,0-7-6.46-12.23-14.86-12.23H620.52l9.91-13.07h23.73c17.56,0,30.25,10.14,30.25,24.63S671.57,570.32,654.16,570.32Zm53.22-58.56,9.38-12.92h12.62c3,0,6.53,0,8.93.15-1.35-1.8-3.45-4.88-5.1-7.28l-9-13.29-23.58,33.34H682.23l32.21-45.42c2.1-2.93,5.18-5.63,10.06-5.63,4.65,0,7.73,2.47,9.91,5.63l31.38,45.42Zm123.26-21.93q0,22.76-31.3,22.75c-24.18,0-34.61-7.58-34.61-22.75v-28.3h15.46v28.3c0,7.44,3.16,9.84,19.15,9.84,11.93,0,15.69-2.78,15.69-9.84v-28.3h15.61Zm61.11-15.23h-18v37.16H858.26V474.6H834.69l10.06-13.07h57.06Z"/></g></svg>