<svg id="astronaut_black_horiz" xmlns="http://www.w3.org/2000/svg" viewBox="0 0 2000 466.17"><path d="M518.22,225.06l20.95-28.83h28.17c6.7,0,14.58,0,19.95.34-3-4-7.72-10.9-11.4-16.26l-20.12-29.67-52.64,74.42H462.06L534,123.65c4.69-6.54,11.56-12.58,22.46-12.58,10.39,0,17.27,5.54,22.13,12.58l70.07,101.41Z"/><path d="M765,157.68c27.33,0,42.08,10.22,42.08,30.67,0,23-13.91,36.71-48.11,36.71H654.5l22.3-28.83h84.82c8.21,0,11.9-2.35,11.9-8.21,0-5.7-3.69-8.05-11.9-8.05h-61c-28.83,0-42.07-12.91-42.07-32.18,0-21.13,14.08-34.87,48.11-34.87H804l-22.29,29.17H704c-8.05,0-11.91,2-11.91,7.71s3.86,7.88,11.91,7.88Z"/><path d="M951.72,112.92l-22.47,29.17H889.19v83h-34.7v-83H801.85l22.46-29.17Z"/><path d="M1110.13,225.06H1063.7l-25-29.67H985.41v29.67h-34.7V167.73h97.56c10.73,0,19.11-4.86,19.11-12.57,0-8.72-7.21-13.07-19.11-13.07H950.71l22.63-29.17h72.08c25.48,0,57.67,8,57.67,40.06,0,17.44-10.9,31.85-29.34,35.54,3.86,2.85,8,6.87,15.76,14.75Z"/><path d="M1278.94,168.91c0,40.06-27.5,58-82,58-54.64,0-82-17.94-82-58s27.33-57.84,82-57.84C1251.44,111.07,1278.94,128.84,1278.94,168.91Zm-34.54,0c0-24.14-12.57-28.67-47.44-28.67s-47.44,4.53-47.44,28.67,12.58,28.83,47.44,28.83S1244.4,193.05,1244.4,168.91Z"/><path d="M1396.28,220.87l-68.73-61.69v65.88H1296V132c0-14.92,9-21,19-21,4.19,0,8.38,1,13.91,6l68.73,61.69V112.92h31.68v92.87c0,14.92-9,21.12-19.11,21.12C1405.83,226.91,1401.64,225.9,1396.28,220.87Z"/><path d="M1492.49,225.06l21-28.83h28.16c6.71,0,14.58,0,20,.34-3-4-7.71-10.9-11.4-16.26L1530,150.64l-52.63,74.42h-41.07l71.91-101.41c4.7-6.54,11.57-12.58,22.46-12.58,10.4,0,17.27,5.54,22.13,12.58l70.07,101.41Z"/><path d="M1767.75,176.12q0,50.79-69.91,50.79c-54,0-77.28-16.93-77.28-50.79v-63.2h34.54v63.2c0,16.59,7,22,42.74,22,26.66,0,35-6.21,35-22v-63.2h34.87Z"/><path d="M1926.66,112.92l-22.46,29.17h-40.07v83h-34.7v-83H1776.8l22.46-29.17Z"/><path d="M583.26,314.1c-9.72-17.27-14.25-25.65-18.1-33.69-3.52,8-8,16.26-17.77,33.52l-17.94,31.85c-4,7.21-10.06,11.9-19.11,11.9-8.72,0-16.43-5-19.44-15.42l-28.5-98.57h34.7l10.56,39.06c3.52,12.58,5.87,21.79,7.54,30.85,3.69-7.88,8-16.43,15.76-31l15.09-28.16c5.87-11.06,11.56-12.57,19.78-12.57,8.38,0,14.25,1.51,20.11,12.57l14.92,28.33c8.39,15.42,12.24,23.3,15.76,30.85,1.85-8.89,4.36-18.44,7.71-30.85l10.56-39.06h33.87l-29,98.57c-3,10.4-10.72,15.42-19.44,15.42-8.89,0-14.92-4.52-19.11-11.9Z"/><path d="M710.49,355.84l21-28.83h28.16c6.71,0,14.59,0,19.95.33-3-4-7.71-10.89-11.4-16.26L748,281.41l-52.63,74.43H654.34l71.91-101.42c4.7-6.53,11.57-12.57,22.46-12.57,10.4,0,17.27,5.53,22.13,12.57l70.07,101.42Z"/><path d="M953.06,351.65,884.33,290v65.88H852.81v-93c0-14.91,9.05-21,18.94-21,4.2,0,8.39,1,13.92,6l68.73,61.68V243.69h31.68v92.87c0,14.92-9.05,21.12-19.11,21.12C962.61,357.68,958.42,356.68,953.06,351.65Z"/><path d="M1145.83,243.69l-22.46,29.17H1083.3v83h-34.7v-83H996l22.46-29.17Z"/><path d="M1286.64,327l-22.29,28.83h-108V243.69h129.92l-22.47,29.17h-72.58v13.41h88.84l-19.94,25.48h-68.9V327Z"/><path d="M1373.64,355.84h-75.1v-69.9h34.87V327h40.23c19.28,0,33.19-10.73,33.19-26.82,0-15.76-14.41-27.33-33.19-27.33h-75.1l22.13-29.17h53c39.23,0,67.56,22.63,67.56,55C1441.2,331.2,1412.53,355.84,1373.64,355.84Z"/><path d="M67.46,217.76a6.32,6.32,0,0,1-7.93-7.17c3.35-19,13.46-61.08,40.48-90.2C135.9,81.7,193.75,44.12,281.38,60.9s114.15,108,120.68,141.53c5.51,28.32,8.36,58.3,9.11,67a6.33,6.33,0,0,1-1.36,4.49c-8.21,10.29-48.43,57.92-115.43,93.08-75.51,39.62-111.4,55.93-124,55.93s-28-2.79-29.83-8.85a44,44,0,0,1-1.63-7.87,6.31,6.31,0,0,0-3.33-4.9c-7.12-3.73-24.27-13.28-27.23-20.26-4.26-10,33.59-22,49.9-68.59,11.64-33.25,5.58-94.63-37.25-101.22C104.22,208.63,80.46,214.14,67.46,217.76Z"/><path d="M110.73,202.43c-1.64,1.28-7.46,27.5-6.06,34.49s9.79,9.79,9.79,16.31-6.92,35.9-10,42-4.51,18.64,3.9,19.57,15.41-2.79,16.34,2.8,0,15.85,2.33,16.31,7.46,6.06,9.79,6.06-5.89.32-3.73,5.6,10.72,8.85,10.26,12.12-6.06,13.05-2.8,17.71,8.39,14.45,25.17,7.46,61.06-22.38,71.32-38.23,14-91.82,0-117.46S183,174.46,158.27,180.52,117.26,197.3,110.73,202.43Z"/><path d="M63,175.87s-23.55,44.07-9.12,114S108.37,381,108.37,381l2.72-2.12S65.23,347.59,57,280.33C49.52,219,71.88,180.43,72.55,178.15S63,175.87,63,175.87Z"/><path d="M66.35,156.05l-7.19,20.47a3.36,3.36,0,0,0,2,4.28c4.73,1.7,13.17,4.63,13.17,3.81,0-1.14,11.78-27,11.78-27l-16.7-3.34A2.71,2.71,0,0,0,66.35,156.05Z"/></svg>