<svg xmlns="http://www.w3.org/2000/svg" viewBox="0 0 1000 1000"><defs><style>.cls-1{fill:#fff;}</style></defs><g id="astronaut_white_aw_helmet"><path class="cls-1" d="M944.31,572.55c-1.85-21.29-8.85-94.89-22.37-164.41-16-82.39-81.12-306.23-296.23-347.42s-357.13,51.06-445.24,146c-24.23,26.12-42.92,56.49-57.29,86.78L105.42,290a6.64,6.64,0,0,0-7.57,4.31L80.19,344.55a8.25,8.25,0,0,0,4,10.06c-13.44,32.24-45.68,129.48-17,268.12C102.58,794.43,201,846.55,201,846.55c7.26,17.14,49.35,40.58,66.83,49.73a15.52,15.52,0,0,1,8.18,12,107.69,107.69,0,0,0,4,19.31c4.58,14.88,42.34,21.74,73.23,21.74s119-40,304.37-137.3C822.09,725.76,920.81,608.83,941,583.57A15.47,15.47,0,0,0,944.31,572.55ZM261.71,759.42c1.54,3.76,4.41,7.17,7.68,10.31-30.57,34.37-60.78,52.79-67.72,67.1C178.09,818.2,92.29,741.48,74.93,599.38c-8-65.61-2.11-120.61,7.24-162.26a15.54,15.54,0,0,0,18.4,8.67c24.31-6.78,63.94-16.24,99.68-17.56-5.13,21.28-10.61,53.24-8.34,64.58,3.44,17.17,24,24,24,40.05s-17,88.11-24.51,103S180.35,681.61,201,683.9s37.82-6.87,40.11,6.87,0,38.9,5.72,40,18.3,14.88,24,14.88S256.4,746.47,261.71,759.42ZM342.94,545.8,367,512.68h32.36c7.7,0,16.75,0,22.91.38-3.47-4.62-8.86-12.51-13.09-18.68L386.08,460.3l-60.47,85.5H278.43L361,429.3c5.4-7.51,13.29-14.44,25.81-14.44,11.94,0,19.83,6.35,25.42,14.44l80.49,116.5ZM682,530.2c-3.46,11.94-12.32,17.72-22.33,17.72-10.21,0-17.14-5.2-22-13.67l-20.6-36.4c-11.17-19.83-16.37-29.46-20.8-38.7-4,9.24-9.24,18.67-20.41,38.51l-20.6,36.59c-4.63,8.28-11.56,13.67-22,13.67-10,0-18.87-5.78-22.33-17.72L478.31,417h39.86l12.13,44.87c4.05,14.44,6.74,25,8.67,35.43,4.23-9,9.24-18.87,18.1-35.62L574.4,429.3c6.74-12.71,13.29-14.44,22.72-14.44,9.63,0,16.37,1.73,23.11,14.44l17.14,32.54c9.63,17.72,14.06,26.77,18.1,35.43,2.12-10.2,5-21.18,8.86-35.43L676.46,417h38.9Z"/></g></svg>