<svg xmlns="http://www.w3.org/2000/svg" viewBox="0 0 1000 1000"><defs><style>.cls-1{fill:#fff;}</style></defs><g id="astronaut_black_helment"><path d="M100.57,445.79A15.51,15.51,0,0,1,81.1,428.18c8.23-46.7,33.05-149.95,99.37-221.43,88.11-95,230.12-187.23,445.24-146s280.21,265,296.23,347.42c13.52,69.52,20.52,143.12,22.37,164.41a15.47,15.47,0,0,1-3.34,11c-20.16,25.26-118.88,142.19-283.35,228.49-185.37,97.26-273.47,137.3-304.37,137.3S284.6,942.5,280,927.62a108.72,108.72,0,0,1-4-19.31,15.49,15.49,0,0,0-8.17-12c-17.48-9.15-59.57-32.59-66.83-49.73-10.46-24.68,82.44-53.95,122.49-168.37,28.57-81.64,13.69-232.3-91.45-248.48C190.81,423.36,132.49,436.89,100.57,445.79Z"/><path d="M206.79,408.14c-4,3.16-18.31,67.51-14.88,84.67s24,24,24,40.05-17,88.11-24.51,103S180.35,681.61,201,683.9s37.82-6.87,40.11,6.87,0,38.9,5.72,40,18.3,14.88,24,14.88-14.47.78-9.16,13.73,26.32,21.74,25.18,29.75-14.88,32-6.87,43.48,20.6,35.47,61.79,18.31S491.7,796,516.88,757.13s34.33-225.41,0-288.35S384.15,339.48,323.5,354.36,222.81,395.55,206.79,408.14Z"/><path d="M97.85,294.29,80.19,344.55a8.25,8.25,0,0,0,5,10.5c11.62,4.18,32.32,11.35,32.32,9.34,0-2.8,28.92-66.22,28.92-66.22l-41-8.19A6.64,6.64,0,0,0,97.85,294.29Z"/><path d="M89.5,342.94S31.68,451.13,67.12,622.73,201,846.55,201,846.55l6.67-5.21S95.1,764.49,74.93,599.38c-18.39-150.51,36.5-245.25,38.13-250.84S89.5,342.94,89.5,342.94Z"/><path class="cls-1" d="M271.09,511.76l9.39-12.92h12.61c3,0,6.53,0,8.93.15-1.35-1.8-3.45-4.88-5.1-7.28l-9-13.29-23.57,33.34h-18.4l32.21-45.42c2.1-2.93,5.18-5.63,10.06-5.63,4.65,0,7.73,2.47,9.91,5.63l31.38,45.42Z"/><path class="cls-1" d="M381.59,481.58c12.24,0,18.85,4.58,18.85,13.74,0,10.28-6.24,16.44-21.55,16.44H332.12l10-12.92h38c3.68,0,5.33-1,5.33-3.67s-1.65-3.61-5.33-3.61H352.76c-12.91,0-18.84-5.78-18.84-14.41,0-9.46,6.31-15.62,21.55-15.62h43.61l-10,13.07H354.27c-3.61,0-5.33.9-5.33,3.45s1.72,3.53,5.33,3.53Z"/><path class="cls-1" d="M465.22,461.53,455.16,474.6H437.22v37.16H421.68V474.6H398.1l10.06-13.07Z"/><path class="cls-1" d="M536.16,511.76h-20.8l-11.18-13.29H480.3v13.29H464.76V486.08h43.7c4.8,0,8.55-2.18,8.55-5.63,0-3.9-3.22-5.85-8.55-5.85h-43.7l10.14-13.07h32.28c11.41,0,25.83,3.61,25.83,18a15.72,15.72,0,0,1-13.14,15.91,64.84,64.84,0,0,1,7,6.61Z"/><path class="cls-1" d="M611.75,486.61c0,17.94-12.31,26-36.71,26s-36.71-8-36.71-26,12.24-25.9,36.71-25.9S611.75,468.66,611.75,486.61Zm-15.46,0c0-10.81-5.63-12.84-21.25-12.84s-21.25,2-21.25,12.84,5.63,12.91,21.25,12.91S596.29,497.42,596.29,486.61Z"/><path class="cls-1" d="M664.3,509.88l-30.79-27.63v29.51H619.4V470.09c0-6.68,4.06-9.38,8.48-9.38,1.88,0,3.76.45,6.24,2.7L664.9,491V461.53h14.18v41.59c0,6.68-4.05,9.46-8.55,9.46C668.57,512.58,666.7,512.13,664.3,509.88Z"/><path class="cls-1" d="M707.38,511.76l9.38-12.92h12.62c3,0,6.53,0,8.93.15-1.35-1.8-3.45-4.88-5.1-7.28l-9-13.29-23.58,33.34H682.23l32.21-45.42c2.1-2.93,5.18-5.63,10.06-5.63,4.65,0,7.73,2.47,9.91,5.63l31.38,45.42Z"/><path class="cls-1" d="M830.64,489.83q0,22.76-31.3,22.75c-24.18,0-34.61-7.58-34.61-22.75v-28.3h15.46v28.3c0,7.44,3.16,9.84,19.15,9.84,11.93,0,15.69-2.78,15.69-9.84v-28.3h15.61Z"/><path class="cls-1" d="M901.81,461.53,891.75,474.6h-18v37.16H858.26V474.6H834.69l10.06-13.07Z"/><path class="cls-1" d="M300.22,551.63c-4.35-7.74-6.38-11.49-8.11-15.09-1.57,3.6-3.6,7.28-7.95,15l-8,14.26c-1.8,3.23-4.5,5.33-8.56,5.33-3.9,0-7.35-2.25-8.7-6.9l-12.77-44.15h15.54l4.73,17.5c1.58,5.63,2.63,9.76,3.38,13.81,1.65-3.53,3.6-7.36,7.06-13.89l6.75-12.61c2.63-5,5.19-5.63,8.86-5.63s6.38.67,9,5.63l6.68,12.69c3.76,6.9,5.48,10.43,7.06,13.81.83-4,1.95-8.26,3.45-13.81l4.73-17.5h15.17l-13,44.15c-1.35,4.65-4.8,6.9-8.71,6.9s-6.68-2-8.56-5.33Z"/><path class="cls-1" d="M357.19,570.32l9.39-12.91h12.61c3,0,6.53,0,8.93.15-1.35-1.81-3.45-4.88-5.1-7.29L374,537l-23.57,33.33H332l32.21-45.42c2.1-2.93,5.18-5.63,10.06-5.63,4.66,0,7.73,2.48,9.91,5.63l31.38,45.42Z"/><path class="cls-1" d="M465.82,568.44,435,540.81v29.51H420.92V528.65c0-6.68,4.06-9.38,8.49-9.38,1.87,0,3.75.45,6.23,2.7l30.78,27.63V520.09h14.19v41.6c0,6.68-4.06,9.45-8.56,9.45C470.1,571.14,468.22,570.69,465.82,568.44Z"/><path class="cls-1" d="M552.14,520.09l-10,13.07h-18v37.16H508.6V533.16H485l10.06-13.07Z"/><path class="cls-1" d="M615.2,557.41l-10,12.91H556.87V520.09h58.18L605,533.16H572.48v6h39.79l-8.93,11.41H572.48v6.84Z"/><path class="cls-1" d="M654.16,570.32H620.52V539h15.62v18.4h18c8.63,0,14.86-4.81,14.86-12,0-7-6.45-12.23-14.86-12.23H620.52l9.91-13.07h23.73c17.56,0,30.25,10.14,30.25,24.63S671.57,570.32,654.16,570.32Z"/></g></svg>